<?xml version="1.0" encoding="UTF-8" standalone="no"?>
<svg width="20px" height="20px" viewBox="0 0 20 20" version="1.1" xmlns="http://www.w3.org/2000/svg" xmlns:xlink="http://www.w3.org/1999/xlink" xmlns:sketch="http://www.bohemiancoding.com/sketch/ns">
    <!-- Generator: Sketch 3.3.2 (12043) - http://www.bohemiancoding.com/sketch -->
    <title>Fill 23 + Fill 22 + Fill 21 Copy 2</title>
    <desc>Created with Sketch.</desc>
    <defs></defs>
    <g id="Page-1" stroke="none" stroke-width="1" fill="none" fill-rule="evenodd" sketch:type="MSPage">
        <g id="Fill-23-+-Fill-22-+-Fill-21-Copy-2" sketch:type="MSLayerGroup" fill="#4F585F">
            <path d="M10.8802222,4.96871795 C10.7804444,4.89245421 10.664,4.83838828 10.5295556,4.80827839 C10.3984444,4.77728938 10.2553333,4.76190476 10.1051111,4.76190476 C9.954,4.76190476 9.81155556,4.77728938 9.67622222,4.80827839 C9.54088889,4.83838828 9.42355556,4.89245421 9.32288889,4.96871795 C9.22311111,5.04520147 9.14422222,5.14652015 9.08688889,5.27179487 C9.02866667,5.39728938 9,5.55355311 9,5.74322344 C9,5.92783883 9.02955556,6.08234432 9.08688889,6.20937729 C9.14422222,6.33728938 9.22311111,6.4403663 9.32288889,6.51663004 C9.42355556,6.59311355 9.54088889,6.64805861 9.67622222,6.68058608 C9.81155556,6.71333333 9.954,6.72959707 10.1051111,6.72959707 C10.2553333,6.72959707 10.3975556,6.71333333 10.5295556,6.68058608 C10.664,6.64805861 10.7795556,6.59223443 10.8802222,6.51663004 C10.98,6.4403663 11.06,6.33728938 11.1197778,6.20937729 C11.1797778,6.08322344 11.2093333,5.92783883 11.2093333,5.74322344 C11.2093333,5.55421245 11.1797778,5.39641026 11.1197778,5.27179487 C11.06,5.14652015 10.98,5.04520147 10.8802222,4.96871795 L10.8802222,4.96871795 Z" id="Fill-23" sketch:type="MSShapeGroup"></path>
            <path d="M9,7.61904762 L11.0295556,7.61904762 L11.0295556,14.97663 L9,14.97663 L9,7.61904762 Z" id="Fill-22" sketch:type="MSShapeGroup"></path>
            <path d="M9.95577778,0 C4.45755556,0 0,4.40857143 0,9.84637363 C0,15.2832967 4.45755556,19.6927473 9.95577778,19.6927473 C15.4531111,19.6927473 19.9115556,15.2832967 19.9115556,9.84637363 C19.9115556,4.40857143 15.4531111,0 9.95577778,0 L9.95577778,0 Z M9.95577778,18.0512088 C5.37333333,18.0512088 1.65888889,14.3775824 1.65888889,9.84637363 C1.65888889,5.31428571 5.37333333,1.64065934 9.95577778,1.64065934 C14.5373333,1.64065934 18.2517778,5.31428571 18.2517778,9.84637363 C18.2517778,14.3775824 14.5373333,18.0512088 9.95577778,18.0512088 L9.95577778,18.0512088 Z" id="Fill-21" sketch:type="MSShapeGroup"></path>
        </g>
    </g>
</svg>