<?xml version="1.0" encoding="UTF-8" standalone="no"?>
<svg width="89px" height="21px" viewBox="0 0 89 21" version="1.1" xmlns="http://www.w3.org/2000/svg" xmlns:xlink="http://www.w3.org/1999/xlink" xmlns:sketch="http://www.bohemiancoding.com/sketch/ns">
    <!-- Generator: Sketch 3.3.2 (12043) - http://www.bohemiancoding.com/sketch -->
    <title>Imported Layers Copy 2</title>
    <desc>Created with Sketch.</desc>
    <defs></defs>
    <g id="Page-1" stroke="none" stroke-width="1" fill="none" fill-rule="evenodd" sketch:type="MSPage">
        <g id="Mobile-Portrait" sketch:type="MSArtboardGroup" transform="translate(-26.000000, -204.000000)" fill="#FFFFFF">
            <g id="Logo" sketch:type="MSLayerGroup" transform="translate(10.000000, 150.000000)">
                <g id="Imported-Layers-Copy-2" transform="translate(16.000000, 54.000000)" sketch:type="MSShapeGroup">
                    <path d="M88.6350561,19.7068 C88.6350561,20.38972 88.1035514,20.92228 87.4131776,20.92228 C86.7286262,20.92228 86.1838131,20.38972 86.1838131,19.7068 C86.1838131,19.03984 86.7286262,18.50224 87.4131776,18.50224 C88.1035514,18.50224 88.6350561,19.03984 88.6350561,19.7068 L88.6350561,19.7068 Z M86.4907383,19.7068 C86.4907383,20.23768 86.8833364,20.66524 87.4214953,20.66524 C87.9438505,20.66524 88.3281308,20.23768 88.3281308,19.71184 C88.3281308,19.17592 87.9438505,18.74584 87.4131776,18.74584 C86.8833364,18.74584 86.4907383,19.17592 86.4907383,19.7068 L86.4907383,19.7068 Z M87.2235327,20.33932 L86.9490467,20.33932 L86.9490467,19.13392 C87.0571776,19.10956 87.2118879,19.09612 87.4065234,19.09612 C87.6311028,19.09612 87.734243,19.13392 87.8199159,19.18432 C87.8872897,19.23556 87.938028,19.33468 87.938028,19.44808 C87.938028,19.57912 87.8357196,19.68832 87.6909907,19.72948 L87.6909907,19.74208 C87.8066075,19.78744 87.8723178,19.87396 87.9080841,20.03776 C87.9438505,20.21836 87.9638131,20.29564 87.993757,20.33932 L87.6968131,20.33932 C87.6610467,20.29564 87.6394206,20.18224 87.6028224,20.04532 C87.5803645,19.9126 87.5088318,19.85296 87.3541215,19.85296 L87.2235327,19.85296 L87.2235327,20.33932 L87.2235327,20.33932 Z M87.2310187,19.65304 L87.3624393,19.65304 C87.5163178,19.65304 87.6394206,19.60432 87.6394206,19.47916 C87.6394206,19.36744 87.5595701,19.29688 87.3848972,19.29688 C87.3108692,19.29688 87.2609626,19.30192 87.2310187,19.30948 L87.2310187,19.65304 L87.2310187,19.65304 Z" id="Fill-1"></path>
                    <path d="M12.8128785,14.4694 L3.2008785,14.4694 C3.2008785,15.71596 3.68247664,17.07172 4.51591589,17.91508 C5.13226168,18.53752 5.96403738,18.8878 7.01290654,18.8878 C8.08756075,18.8878 8.97257009,18.5896 9.53817757,17.99152 C9.91330841,17.6152 10.1553551,17.23468 10.3416729,16.5022 L12.5724953,16.5022 C12.3853458,17.85712 11.5785234,19.13392 10.4789159,19.88824 C9.51156075,20.5468 8.30299065,20.92228 7.01290654,20.92228 C5.10564486,20.92228 3.54772897,20.10748 2.50052336,18.86428 C1.37097196,17.53372 0.809523364,15.71596 0.809523364,13.7638 C0.809523364,12.11068 1.10480374,10.6432 1.8558972,9.36808 C2.82242056,7.7158 4.62321495,6.4936 6.98462617,6.4936 C8.73218692,6.4936 10.1279065,7.17148 11.1218785,8.2576 C12.2223178,9.47728 12.8652804,11.24212 12.8419907,13.0834 L12.8128785,14.4694 L12.8128785,14.4694 Z M9.67375701,9.69148 C9.10814953,8.93296 8.19402804,8.44744 6.98462617,8.44744 C4.51591589,8.44744 3.30485047,10.48024 3.25161682,12.4912 L10.5030374,12.4912 C10.5030374,11.458 10.2069252,10.42732 9.67375701,9.69148 L9.67375701,9.69148 Z M35.8414206,20.56948 L35.6526075,18.4846 C34.9539159,20.05624 33.2080187,20.90044 31.623486,20.90044 C28.5359346,20.90044 26.9755234,19.02388 26.9755234,15.85288 L26.9755234,6.84556 L29.261243,6.84556 L29.261243,15.5278 C29.261243,17.58832 30.0123364,18.81052 32.1608131,18.81052 C33.0741028,18.81052 33.8268598,18.4006 34.4174206,17.78236 C35.2774766,16.88524 35.5461402,15.39088 35.5461402,13.98136 L35.5461402,6.84556 L37.8277009,6.84556 L37.8277009,20.56948 L35.8414206,20.56948 L35.8414206,20.56948 Z M50.3035047,19.4338 C49.3378131,20.38636 48.047729,20.92228 46.3850093,20.92228 C43.9412523,20.92228 42.3800093,19.78576 41.413486,18.34684 C40.6881776,17.26576 40.2864299,15.77224 40.2864299,13.7134 C40.2864299,11.647 40.6881776,10.15768 41.413486,9.06652 C42.3800093,7.63096 43.9113084,6.4936 46.3550654,6.4936 C47.9687103,6.4936 49.2845794,7.03708 50.2253178,7.96024 C51.140271,8.8582 51.7283364,9.99472 51.8356355,11.48656 L49.5249626,11.48656 C49.4176636,10.534 49.0683178,9.85612 48.5601028,9.34036 C48.0219439,8.82628 47.2434019,8.50036 46.3550654,8.50036 C45.3095234,8.50036 44.5825514,8.87836 43.9928224,9.3958 C42.919,10.31644 42.6220561,12.02836 42.6220561,13.7134 C42.6220561,15.39088 42.919,17.09776 43.9928224,18.02092 C44.5825514,18.53752 45.3095234,18.91552 46.3550654,18.91552 C47.2966355,18.91552 48.129243,18.5644 48.6674019,17.99152 C49.1498318,17.47912 49.4742243,16.855 49.579028,15.96208 L51.8888692,15.96208 C51.7832336,17.42452 51.2192897,18.53752 50.3035047,19.4338 L50.3035047,19.4338 Z M54.2635888,2.47924 L56.7464393,2.47924 L56.7464393,4.87324 L54.2635888,4.87324 L54.2635888,2.47924 Z M54.3359533,6.84556 L56.673243,6.84556 L56.673243,20.56948 L54.3359533,20.56948 L54.3359533,6.84556 Z M70.0623364,20.75848 C68.8562617,20.75848 68.1001776,19.83784 68.1001776,18.67192 L68.0486075,18.67192 C67.2692336,20.05624 65.5774019,20.92228 63.670972,20.92228 C60.5551402,20.92228 58.9972243,18.81052 58.9972243,16.68952 C58.9972243,14.92888 60.1242804,12.61972 63.8331682,12.40972 L67.968757,12.16444 L67.968757,11.1598 C67.968757,10.48024 67.8864112,9.64192 67.2692336,9.06652 C66.8125888,8.63476 66.1413458,8.36596 65.0400748,8.36596 C63.8057196,8.36596 63.0263458,8.71708 62.5688692,9.17656 C62.1380093,9.61168 61.8976262,10.15768 61.8976262,10.83388 L59.6676355,10.83388 C59.6934206,9.5848 60.1533925,8.69272 60.8504206,7.96024 C61.7628785,6.97912 63.3756916,6.4936 65.0400748,6.4936 C67.6701495,6.4936 69.1756636,7.63096 69.8169626,9.12532 C70.089785,9.7486 70.2228692,10.45336 70.2228692,11.24212 L70.2228692,17.88316 C70.2228692,18.61816 70.5189813,18.81052 70.9747944,18.81052 C71.2176729,18.81052 71.5670187,18.7324 71.5670187,18.7324 L71.5670187,20.4334 C71.083757,20.68204 70.6279439,20.75848 70.0623364,20.75848 L70.0623364,20.75848 Z M67.968757,13.95364 L64.3147664,14.16784 C62.9448318,14.25268 61.3336822,14.90368 61.3336822,16.63828 C61.3336822,17.85712 62.0864393,18.99952 64.019486,18.99952 C65.0683551,18.99952 66.0872804,18.6484 66.8125888,17.88316 C67.6185794,17.04568 67.968757,15.9058 67.968757,14.76508 L67.968757,13.95364 L67.968757,13.95364 Z M82.4058879,20.56948 L82.4058879,11.86456 C82.4058879,9.80236 81.570785,8.5852 79.4231402,8.5852 C78.107271,8.5852 77.0600654,9.45208 76.4703364,10.69864 C76.0136916,11.70076 75.9870748,13.13632 75.9870748,14.19724 L75.9870748,20.56948 L73.7046822,20.56948 L73.7046822,6.84556 L75.6884673,6.84556 L75.8772804,8.90944 C76.5776355,7.33024 78.4566168,6.4936 79.9887477,6.4936 C83.0771308,6.4936 84.6874486,8.36596 84.6874486,11.54116 L84.6874486,20.56948 L82.4058879,20.56948 L82.4058879,20.56948 Z M15.4088505,20.56948 L17.6929065,20.56948 L17.6929065,0.9874 L15.4088505,0.9874 L15.4088505,20.56948 Z M21.6338598,20.56948 L23.9170841,20.56948 L23.9170841,0.9874 L21.6338598,0.9874 L21.6338598,20.56948 Z" id="Fill-2"></path>
                </g>
            </g>
        </g>
    </g>
</svg>