<?xml version="1.0" encoding="utf-8"?>
<!-- Generator: Adobe Illustrator 18.1.1, SVG Export Plug-In . SVG Version: 6.00 Build 0)  -->
<!DOCTYPE svg PUBLIC "-//W3C//DTD SVG 1.1//EN" "http://www.w3.org/Graphics/SVG/1.1/DTD/svg11.dtd">
<svg version="1.1" id="Layer_1" xmlns:sketch="http://www.bohemiancoding.com/sketch/ns"
	 xmlns="http://www.w3.org/2000/svg" xmlns:xlink="http://www.w3.org/1999/xlink" x="0px" y="0px" viewBox="-312.5 268 74 18"
	 enable-background="new -312.5 268 74 18" xml:space="preserve">
<title>Fill 1 + Fill 2</title>
<desc>Created with Sketch.</desc>
<g id="Page-1" sketch:type="MSPage">
	<g id="Design" transform="translate(-104.000000, -1616.000000)" sketch:type="MSArtboardGroup">
		<g id="Rectangle-555-Copy-_x2B_-Group-Copy-6-Copy" transform="translate(66.000000, 1601.000000)" sketch:type="MSLayerGroup">
			<g id="Group-Copy-6" sketch:type="MSShapeGroup">
				<g id="Group-Copy" transform="translate(0.000000, 2.000000)">
					<g id="Shape-_x2B_-Fill-1-_x2B_-Fill-2" transform="translate(10.460311, 13.145098)">
						<g id="Fill-1-_x2B_-Fill-2" transform="translate(27.000000, 0.000000)">
							<path id="Fill-1" fill="#FFFFFF" d="M-238.7,283.9c0,0.6-0.4,1-1,1c-0.6,0-1-0.4-1-1c0-0.6,0.4-1,1-1
								C-239.2,282.9-238.7,283.4-238.7,283.9L-238.7,283.9z M-240.5,283.9c0,0.4,0.3,0.8,0.8,0.8c0.4,0,0.7-0.4,0.7-0.8
								c0-0.4-0.3-0.8-0.8-0.8C-240.2,283.1-240.5,283.5-240.5,283.9L-240.5,283.9z M-239.9,284.5h-0.2v-1c0.1,0,0.2,0,0.4,0
								c0.2,0,0.3,0,0.3,0.1c0.1,0,0.1,0.1,0.1,0.2c0,0.1-0.1,0.2-0.2,0.2v0c0.1,0,0.1,0.1,0.2,0.2c0,0.2,0,0.2,0.1,0.3h-0.2
								c0,0,0-0.1-0.1-0.2c0-0.1-0.1-0.2-0.2-0.2h-0.1V284.5L-239.9,284.5z M-239.9,283.9h0.1c0.1,0,0.2,0,0.2-0.1
								c0-0.1-0.1-0.2-0.2-0.2c-0.1,0-0.1,0-0.1,0V283.9L-239.9,283.9z"/>
							<path id="Fill-2" fill="#FFFFFF" d="M-301.2,279.5h-7.9c0,1,0.4,2.2,1.1,2.9c0.5,0.5,1.2,0.8,2.1,0.8c0.9,0,1.6-0.2,2.1-0.7
								c0.3-0.3,0.5-0.6,0.7-1.2h1.8c-0.2,1.1-0.8,2.2-1.7,2.8c-0.8,0.6-1.8,0.9-2.9,0.9c-1.6,0-2.9-0.7-3.7-1.7
								c-0.9-1.1-1.4-2.6-1.4-4.3c0-1.4,0.2-2.6,0.9-3.7c0.8-1.4,2.3-2.4,4.2-2.4c1.4,0,2.6,0.6,3.4,1.5c0.9,1,1.4,2.5,1.4,4
								L-301.2,279.5L-301.2,279.5z M-303.8,275.5c-0.5-0.6-1.2-1-2.2-1c-2,0-3,1.7-3.1,3.4h6C-303.1,277-303.4,276.2-303.8,275.5
								L-303.8,275.5z M-282.3,284.6l-0.2-1.7c-0.6,1.3-2,2-3.3,2c-2.5,0-3.8-1.6-3.8-4.2v-7.5h1.9v7.3c0,1.7,0.6,2.7,2.4,2.7
								c0.8,0,1.4-0.3,1.9-0.9c0.7-0.8,0.9-2,0.9-3.2v-6h1.9v11.5H-282.3L-282.3,284.6z M-270.3,283.7c-0.8,0.8-1.9,1.2-3.2,1.2
								c-2,0-3.3-1-4.1-2.2c-0.6-0.9-0.9-2.2-0.9-3.9c0-1.7,0.3-3,0.9-3.9c0.8-1.2,2.1-2.2,4.1-2.2c1.3,0,2.4,0.5,3.2,1.2
								c0.8,0.8,1.2,1.7,1.3,2.9h-1.9c-0.1-0.8-0.4-1.4-0.8-1.8c-0.4-0.4-1.1-0.7-1.8-0.7c-0.9,0-1.5,0.3-1.9,0.7
								c-0.9,0.8-1.1,2.2-1.1,3.6c0,1.4,0.2,2.8,1.1,3.6c0.5,0.4,1.1,0.7,1.9,0.7c0.8,0,1.5-0.3,1.9-0.8c0.4-0.4,0.7-1,0.8-1.7h1.9
								C-269.1,282-269.6,282.9-270.3,283.7L-270.3,283.7z M-267.1,269.5h2v2h-2V269.5z M-267,273.2h1.9v11.5h-1.9V273.2z
								 M-254.1,284.8c-1,0-1.6-0.8-1.6-1.7h0c-0.6,1.2-2,1.9-3.6,1.9c-2.6,0-3.9-1.8-3.9-3.5c0-1.5,0.9-3.4,4-3.6l3.4-0.2v-0.8
								c0-0.6-0.1-1.3-0.6-1.8c-0.4-0.4-0.9-0.6-1.8-0.6c-1,0-1.7,0.3-2,0.7c-0.4,0.4-0.6,0.8-0.6,1.4h-1.8c0-1,0.4-1.8,1-2.4
								c0.8-0.8,2.1-1.2,3.5-1.2c2.2,0,3.4,1,3.9,2.2c0.2,0.5,0.3,1.1,0.3,1.8v5.6c0,0.6,0.2,0.8,0.6,0.8c0.2,0,0.5-0.1,0.5-0.1v1.4
								C-253.2,284.7-253.6,284.8-254.1,284.8L-254.1,284.8z M-255.8,279.1l-3,0.2c-1.1,0.1-2.5,0.6-2.5,2.1c0,1,0.6,2,2.2,2
								c0.9,0,1.7-0.3,2.3-0.9c0.7-0.7,1-1.7,1-2.6V279.1L-255.8,279.1z M-243.9,284.6v-7.3c0-1.7-0.7-2.7-2.5-2.7
								c-1.1,0-1.9,0.7-2.4,1.8c-0.4,0.8-0.4,2-0.4,2.9v5.3h-1.9v-11.5h1.6l0.2,1.7c0.6-1.3,2.1-2,3.4-2c2.5,0,3.9,1.6,3.9,4.2v7.6
								H-243.9L-243.9,284.6z M-299.1,284.6h1.9v-16.4h-1.9V284.6z M-294,284.6h1.9v-16.4h-1.9V284.6z"/>
						</g>
					</g>
				</g>
			</g>
		</g>
	</g>
</g>
</svg>
