<?xml version="1.0" encoding="UTF-8" standalone="no"?>
<svg width="20px" height="20px" viewBox="0 0 20 20" version="1.1" xmlns="http://www.w3.org/2000/svg" xmlns:xlink="http://www.w3.org/1999/xlink" xmlns:sketch="http://www.bohemiancoding.com/sketch/ns">
    <!-- Generator: Sketch 3.3.2 (12043) - http://www.bohemiancoding.com/sketch -->
    <title>Shape</title>
    <desc>Created with Sketch.</desc>
    <defs></defs>
    <g id="Page-1" stroke="none" stroke-width="1" fill="none" fill-rule="evenodd" sketch:type="MSPage">
        <g id="Design" sketch:type="MSArtboardGroup" transform="translate(-2364.000000, -701.000000)" fill="#B7C6D1">
            <path d="M2377.88889,713.222222 L2377,713.222222 L2376.66667,712.888889 C2377.77778,711.666667 2378.44444,710 2378.44444,708.222222 C2378.44444,704.222222 2375.22222,701 2371.22222,701 C2367.22222,701 2364,704.222222 2364,708.222222 C2364,712.222222 2367.22222,715.444444 2371.22222,715.444444 C2373,715.444444 2374.66667,714.777778 2375.88889,713.666667 L2376.22222,714 L2376.22222,714.888889 L2381.77778,720.444444 L2383.44444,718.777778 L2377.88889,713.222222 M2371.22222,713.222222 C2368.44444,713.222222 2366.22222,711 2366.22222,708.222222 C2366.22222,705.444444 2368.44444,703.222222 2371.22222,703.222222 C2374,703.222222 2376.22222,705.444444 2376.22222,708.222222 C2376.22222,711 2374,713.222222 2371.22222,713.222222" id="Shape" sketch:type="MSShapeGroup"></path>
        </g>
    </g>
</svg>