<?xml version="1.0" encoding="UTF-8" standalone="no"?>
<svg width="20px" height="20px" viewBox="0 0 20 20" version="1.1" xmlns="http://www.w3.org/2000/svg" xmlns:xlink="http://www.w3.org/1999/xlink" xmlns:sketch="http://www.bohemiancoding.com/sketch/ns">
    <!-- Generator: Sketch 3.3.2 (12043) - http://www.bohemiancoding.com/sketch -->
    <title>Shape Copy 21</title>
    <desc>Created with Sketch.</desc>
    <defs></defs>
    <g id="Page-1" stroke="none" stroke-width="1" fill="none" fill-rule="evenodd" sketch:type="MSPage">
        <g id="Design" sketch:type="MSArtboardGroup" transform="translate(-2364.000000, -641.000000)" fill="#206E9F">
            <path d="M2377.88889,653.222222 L2377,653.222222 L2376.66667,652.888889 C2377.77778,651.666667 2378.44444,650 2378.44444,648.222222 C2378.44444,644.222222 2375.22222,641 2371.22222,641 C2367.22222,641 2364,644.222222 2364,648.222222 C2364,652.222222 2367.22222,655.444444 2371.22222,655.444444 C2373,655.444444 2374.66667,654.777778 2375.88889,653.666667 L2376.22222,654 L2376.22222,654.888889 L2381.77778,660.444444 L2383.44444,658.777778 L2377.88889,653.222222 M2371.22222,653.222222 C2368.44444,653.222222 2366.22222,651 2366.22222,648.222222 C2366.22222,645.444444 2368.44444,643.222222 2371.22222,643.222222 C2374,643.222222 2376.22222,645.444444 2376.22222,648.222222 C2376.22222,651 2374,653.222222 2371.22222,653.222222" id="Shape-Copy-21" sketch:type="MSShapeGroup"></path>
        </g>
    </g>
</svg>