<?xml version="1.0" encoding="utf-8"?>
<!-- Generator: Adobe Illustrator 18.1.1, SVG Export Plug-In . SVG Version: 6.00 Build 0)  -->
<!DOCTYPE svg PUBLIC "-//W3C//DTD SVG 1.1//EN" "http://www.w3.org/Graphics/SVG/1.1/DTD/svg11.dtd">
<svg version="1.1" id="Layer_1" xmlns:sketch="http://www.bohemiancoding.com/sketch/ns"
	 xmlns="http://www.w3.org/2000/svg" xmlns:xlink="http://www.w3.org/1999/xlink" x="0px" y="0px" viewBox="-346.5 267 6 20"
	 enable-background="new -346.5 267 6 20" xml:space="preserve">
<title>Shape Copy 7</title>
<desc>Created with Sketch.</desc>
<g id="Page-1" sketch:type="MSPage">
	<g id="Design" transform="translate(-2298.000000, -718.000000)" sketch:type="MSArtboardGroup" opacity="0.5021">
		<g id="Group-Copy-3" transform="translate(1317.000000, 341.000000)" sketch:type="MSLayerGroup">
			<g id="Group-Copy" transform="translate(20.000000, 232.000000)" sketch:type="MSShapeGroup">
				<path id="Shape-Copy-7" fill="#4F585F" d="M617.5,417c1.4,0,2.5-1.1,2.5-2.5s-1.1-2.5-2.5-2.5s-2.5,1.1-2.5,2.5
					S616.1,417,617.5,417L617.5,417z M617.5,419.5c-1.4,0-2.5,1.1-2.5,2.5s1.1,2.5,2.5,2.5s2.5-1.1,2.5-2.5S618.9,419.5,617.5,419.5
					L617.5,419.5z M617.5,427c-1.4,0-2.5,1.1-2.5,2.5s1.1,2.5,2.5,2.5s2.5-1.1,2.5-2.5S618.9,427,617.5,427L617.5,427z"/>
			</g>
		</g>
	</g>
</g>
</svg>
