<?xml version="1.0" encoding="UTF-8" standalone="no"?>
<svg width="20px" height="20px" viewBox="0 0 20 20" version="1.1" xmlns="http://www.w3.org/2000/svg" xmlns:xlink="http://www.w3.org/1999/xlink" xmlns:sketch="http://www.bohemiancoding.com/sketch/ns">
    <!-- Generator: Sketch 3.3.2 (12043) - http://www.bohemiancoding.com/sketch -->
    <title>Imported Layers 2</title>
    <desc>Created with Sketch.</desc>
    <defs></defs>
    <g id="Page-1" stroke="none" stroke-width="1" fill="none" fill-rule="evenodd" sketch:type="MSPage">
        <g id="Design" sketch:type="MSArtboardGroup" transform="translate(-841.000000, -361.000000)" fill="#FFFFFF">
            <g id="Group-Copy-2" sketch:type="MSLayerGroup" transform="translate(64.000000, 341.000000)">
                <g id="tablet_header_landscape" sketch:type="MSShapeGroup">
                    <path d="M795.886667,28.0533333 L793.1,28.0533333 C792.934667,27.52 792.701333,27.0146667 792.418667,26.5466667 L794.265333,24.6933333 C794.701333,24.2626667 794.701333,23.5573333 794.265333,23.124 L793.481333,22.34 C793.046667,21.908 792.342667,21.9093333 791.910667,22.34 L790.030667,24.2173333 C789.522667,23.928 788.972,23.704 788.386667,23.5533333 L788.386667,21.112 C788.386667,20.5 787.892,20 787.276,20 L786.166667,20 C785.554667,20 785.056,20.5 785.056,21.112 L785.056,23.5533333 C784.418667,23.7146667 783.82,23.9693333 783.269333,24.304 L781.697333,22.7306667 C781.264,22.3 780.557333,22.2986667 780.125333,22.7306667 L779.337333,23.516 C778.904,23.948 778.909333,24.6546667 779.34,25.0893333 L780.942667,26.6906667 C780.604,27.2813333 780.349333,27.9266667 780.204,28.6093333 L778.113333,28.6093333 C777.498667,28.6093333 777,29.1066667 777,29.7213333 L777,30.832 C777,31.444 777.498667,31.94 778.113333,31.94 L780.346667,31.94 C780.548,32.6106667 780.854667,33.228 781.245333,33.7893333 L779.734667,35.3 C779.3,35.736 779.3,36.44 779.730667,36.8733333 L780.516,37.6586667 C780.952,38.0893333 781.657333,38.0893333 782.089333,37.656 L783.777333,35.9693333 C784.345333,36.252 784.962667,36.4573333 785.610667,36.5626667 L785.610667,38.8853333 C785.610667,39.4986667 786.108,39.9973333 786.722667,39.9986667 L787.833333,39.9986667 C788.445333,39.9973333 788.944,39.4986667 788.944,38.8853333 L788.944,36.276 C789.502667,36.0773333 790.033333,35.812 790.514667,35.4746667 L792.302667,37.2653333 C792.737333,37.6986667 793.438667,37.6986667 793.874667,37.2653333 L794.66,36.48 C795.096,36.0466667 795.096,35.344 794.656,34.908 L792.696,32.944 C792.937333,32.456 793.124,31.9373333 793.24,31.3866667 L795.886667,31.3866667 C796.501333,31.3866667 796.997333,30.892 797,30.2746667 L797,29.1653333 C796.997333,28.5533333 796.501333,28.0533333 795.886667,28.0533333 L795.886667,28.0533333 Z M786.722667,32.7746667 C785.190667,32.7746667 783.946667,31.5346667 783.946667,29.9986667 C783.946667,28.464 785.190667,27.224 786.722667,27.224 C788.258667,27.224 789.501333,28.464 789.501333,29.9986667 C789.501333,31.5346667 788.258667,32.7746667 786.722667,32.7746667 L786.722667,32.7746667 Z" id="Imported-Layers-2"></path>
                </g>
            </g>
        </g>
    </g>
</svg>