<?xml version="1.0" encoding="utf-8"?>
<!-- Generator: Adobe Illustrator 18.1.1, SVG Export Plug-In . SVG Version: 6.00 Build 0)  -->
<!DOCTYPE svg PUBLIC "-//W3C//DTD SVG 1.1//EN" "http://www.w3.org/Graphics/SVG/1.1/DTD/svg11.dtd">
<svg version="1.1" id="Layer_1" xmlns="http://www.w3.org/2000/svg" xmlns:xlink="http://www.w3.org/1999/xlink" x="0px" y="0px"
	 viewBox="0 0 20 20" enable-background="new 0 0 20 20" xml:space="preserve">
<g>
	<defs>
		<rect id="SVGID_1_" width="20" height="20"/>
	</defs>
	<clipPath id="SVGID_2_">
		<use xlink:href="#SVGID_1_"  overflow="visible"/>
	</clipPath>
	<g clip-path="url(#SVGID_2_)">
		<defs>
			<path id="SVGID_3_" d="M4,0.5h12c1.9,0,3.5,1.6,3.5,3.5v12c0,1.9-1.6,3.5-3.5,3.5H4c-1.9,0-3.5-1.6-3.5-3.5V4
				C0.5,2.1,2.1,0.5,4,0.5z M4-0.5c-2.5,0-4.5,2-4.5,4.5v12c0,2.5,2,4.5,4.5,4.5h12c2.5,0,4.5-2,4.5-4.5V4c0-2.5-2-4.5-4.5-4.5H4z
				 M-20.5-20.5h61v61h-61V-20.5z"/>
		</defs>
		<clipPath id="SVGID_4_">
			<use xlink:href="#SVGID_3_"  overflow="visible"/>
		</clipPath>
		<g clip-path="url(#SVGID_4_)">
			<defs>
				<path id="SVGID_5_" d="M4,0C1.8,0,0,1.8,0,4v12c0,2.2,1.8,4,4,4h12c2.2,0,4-1.8,4-4V4c0-2.2-1.8-4-4-4H4z"/>
			</defs>
			<clipPath id="SVGID_6_">
				<use xlink:href="#SVGID_5_"  overflow="visible"/>
			</clipPath>
			<path clip-path="url(#SVGID_6_)" fill-rule="evenodd" clip-rule="evenodd" fill="#FFFFFF" d="M4,0C1.8,0,0,1.8,0,4v12
				c0,2.2,1.8,4,4,4h12c2.2,0,4-1.8,4-4V4c0-2.2-1.8-4-4-4H4z"/>
		</g>
	</g>
</g>
<g>
	<defs>
		<rect id="SVGID_7_" width="20" height="20"/>
	</defs>
	<clipPath id="SVGID_8_">
		<use xlink:href="#SVGID_7_"  overflow="visible"/>
	</clipPath>
	<g clip-path="url(#SVGID_8_)">
		<defs>
			<path id="SVGID_9_" d="M4,0C1.8,0,0,1.8,0,4v12c0,2.2,1.8,4,4,4h12c2.2,0,4-1.8,4-4V4c0-2.2-1.8-4-4-4H4z"/>
		</defs>
		<clipPath id="SVGID_10_">
			<use xlink:href="#SVGID_9_"  overflow="visible"/>
		</clipPath>
		<path clip-path="url(#SVGID_10_)" fill="none" stroke="#505960" stroke-width="2" stroke-miterlimit="10" d="M4,0C1.8,0,0,1.8,0,4
			v12c0,2.2,1.8,4,4,4h12c2.2,0,4-1.8,4-4V4c0-2.2-1.8-4-4-4H4z"/>
	</g>
</g>
</svg>
